<?xml version="1.0" encoding="UTF-8" standalone="no"?>
<!-- Created with Inkscape (http://www.inkscape.org/) -->

<svg
   xmlns:dc="http://purl.org/dc/elements/1.1/"
   xmlns:cc="http://creativecommons.org/ns#"
   xmlns:rdf="http://www.w3.org/1999/02/22-rdf-syntax-ns#"
   xmlns:svg="http://www.w3.org/2000/svg"
   xmlns="http://www.w3.org/2000/svg"
   xmlns:sodipodi="http://sodipodi.sourceforge.net/DTD/sodipodi-0.dtd"
   xmlns:inkscape="http://www.inkscape.org/namespaces/inkscape"
   width="32"
   height="32"
   id="svg4125"
   version="1.1"
   inkscape:version="0.48.3.1 r9886"
   sodipodi:docname="filmeUtils.svg">
  <defs
     id="defs4127">
    <filter
       inkscape:collect="always"
       id="filter4740"
       color-interpolation-filters="sRGB">
      <feGaussianBlur
         inkscape:collect="always"
         stdDeviation="12.357144"
         id="feGaussianBlur4742" />
    </filter>
  </defs>
  <sodipodi:namedview
     id="base"
     pagecolor="#ffffff"
     bordercolor="#666666"
     borderopacity="1.0"
     inkscape:pageopacity="0.0"
     inkscape:pageshadow="2"
     inkscape:zoom="16"
     inkscape:cx="19.12242"
     inkscape:cy="6.9485597"
     inkscape:document-units="px"
     inkscape:current-layer="g4744"
     showgrid="false"
     fit-margin-top="0"
     fit-margin-left="0"
     fit-margin-right="0"
     fit-margin-bottom="0"
     inkscape:window-width="1920"
     inkscape:window-height="1056"
     inkscape:window-x="0"
     inkscape:window-y="24"
     inkscape:window-maximized="1" />
  <metadata
     id="metadata4130">
    <rdf:RDF>
      <cc:Work
         rdf:about="">
        <dc:format>image/svg+xml</dc:format>
        <dc:type
           rdf:resource="http://purl.org/dc/dcmitype/StillImage" />
        <dc:title />
      </cc:Work>
    </rdf:RDF>
  </metadata>
  <g
     inkscape:label="Layer 1"
     inkscape:groupmode="layer"
     id="layer1"
     transform="translate(-32.928408,-207.86834)">
    <g
       id="g4744"
       transform="matrix(0.05618611,0,0,0.05618611,27.217432,205.95242)">
      <path
         style="fill:#000000;fill-opacity:1;stroke:none;filter:url(#filter4740)"
         d="m 117.14286,98.076469 540.00006,0 0,448.571441 -540.00006,0 z"
         id="rect4738"
         inkscape:connector-curvature="0" />
      <path
         style="fill:#000000;fill-opacity:1;stroke:none"
         d="m 117.14286,98.076469 540.00006,0 0,448.571441 -540.00006,0 z"
         id="rect4133"
         inkscape:connector-curvature="0" />
      <path
         style="fill:#ffffff;fill-opacity:1;stroke:none"
         d="m 194.28574,120.26291 385.71429,0 0,399.8258 -385.71429,0 z"
         id="rect4135"
         inkscape:connector-curvature="0" />
      <g
         transform="translate(0,6.3850193)"
         id="g4707">
        <path
           style="fill:#ffffff;fill-opacity:1;stroke:none"
           d="m 589.71436,118.07652 54.28574,0 0,37.14287 -54.28574,0 z"
           id="rect4137"
           inkscape:connector-curvature="0" />
        <path
           style="fill:#ffffff;fill-opacity:1;stroke:none"
           d="m 589.71436,177.12413 54.28574,0 0,37.14287 -54.28574,0 z"
           id="rect4139"
           inkscape:connector-curvature="0" />
        <path
           style="fill:#ffffff;fill-opacity:1;stroke:none"
           d="m 589.71436,236.17174 54.28574,0 0,37.14287 -54.28574,0 z"
           id="rect4141"
           inkscape:connector-curvature="0" />
        <path
           style="fill:#ffffff;fill-opacity:1;stroke:none"
           d="m 589.71436,295.21936 54.28574,0 0,37.14287 -54.28574,0 z"
           id="rect4143"
           inkscape:connector-curvature="0" />
        <path
           style="fill:#ffffff;fill-opacity:1;stroke:none"
           d="m 589.71436,354.26697 54.28574,0 0,37.14287 -54.28574,0 z"
           id="rect4145"
           inkscape:connector-curvature="0" />
        <path
           style="fill:#ffffff;fill-opacity:1;stroke:none"
           d="m 589.71436,413.31458 54.28574,0 0,37.14287 -54.28574,0 z"
           id="rect4147"
           inkscape:connector-curvature="0" />
        <path
           style="fill:#ffffff;fill-opacity:1;stroke:none"
           d="m 589.71436,472.36218 54.28574,0 0,37.14287 -54.28574,0 z"
           id="rect4149"
           inkscape:connector-curvature="0" />
      </g>
      <g
         transform="translate(0,-5.738821)"
         id="g4698">
        <path
           style="fill:#ffffff;fill-opacity:1;stroke:none"
           d="m 128.00006,130.20036 54.28574,0 0,37.14288 -54.28574,0 z"
           id="rect4162"
           inkscape:connector-curvature="0" />
        <path
           style="fill:#ffffff;fill-opacity:1;stroke:none"
           d="m 128.00006,189.24797 54.28574,0 0,37.14287 -54.28574,0 z"
           id="rect4164"
           inkscape:connector-curvature="0" />
        <path
           style="fill:#ffffff;fill-opacity:1;stroke:none"
           d="m 128.00006,248.29558 54.28574,0 0,37.14287 -54.28574,0 z"
           id="rect4166"
           inkscape:connector-curvature="0" />
        <path
           style="fill:#ffffff;fill-opacity:1;stroke:none"
           d="m 128.00006,307.3432 54.28574,0 0,37.14287 -54.28574,0 z"
           id="rect4168"
           inkscape:connector-curvature="0" />
        <path
           style="fill:#ffffff;fill-opacity:1;stroke:none"
           d="m 128.00006,366.39081 54.28574,0 0,37.14287 -54.28574,0 z"
           id="rect4170"
           inkscape:connector-curvature="0" />
        <path
           style="fill:#ffffff;fill-opacity:1;stroke:none"
           d="m 128.00006,425.43842 54.28574,0 0,37.14287 -54.28574,0 z"
           id="rect4172"
           inkscape:connector-curvature="0" />
        <path
           style="fill:#ffffff;fill-opacity:1;stroke:none"
           d="m 128.00006,484.48602 54.28574,0 0,37.14287 -54.28574,0 z"
           id="rect4174"
           inkscape:connector-curvature="0" />
      </g>
      <path
         style="fill:#ffff00;stroke:#000000;stroke-width:1px;stroke-linecap:butt;stroke-linejoin:miter;stroke-opacity:1"
         d="m 8.5625,23.875 15,0"
         id="path3012"
         inkscape:connector-curvature="0"
         transform="matrix(17.797993,0,0,17.797993,101.64391,34.099531)" />
      <path
         style="fill:#ffff00;stroke:#ffff00;stroke-width:17.79799271px;stroke-linecap:butt;stroke-linejoin:miter;stroke-opacity:1"
         d="m 250.7021,453.46474 266.9699,0"
         id="path3014"
         inkscape:connector-curvature="0" />
    </g>
  </g>
</svg>
